<svg width="1606" height="3747" viewBox="0 0 1606 3747" fill="none" xmlns="http://www.w3.org/2000/svg">
<path d="M1225 2C1357.5 132 1345.62 119.5 1410 191C1845.53 674.696 236.492 751.022 141.942 1395C38.7809 2097.62 1696.41 2046.53 1411.44 2697C1182.22 3220.22 210.713 3387.54 21.4416 3926.5C-212.266 4592 1885.31 4223.09 1570.94 4854.5C1436.61 5124.3 965.442 5333 965.442 5333" stroke="#F2F2F2" stroke-width="5"/>
<g clip-path="url(#clip0_0_262)">
<rect width="100" height="100" transform="translate(156.604 1252) rotate(50)" fill="white"/>
<g filter="url(#filter0_d_0_262)">
<path d="M185.014 1304.06L178.379 1318.61C177.42 1320.8 177.515 1323.27 178.709 1325.21L186.942 1338.4C191.14 1345.24 186.541 1353 177.834 1352.28L162.371 1351.17C161.129 1351.06 159.881 1351.26 158.732 1351.74C157.582 1352.22 156.565 1352.97 155.766 1353.93L145.204 1365.95C139.804 1372.28 130.9 1370.74 129.277 1362.97L125.942 1347.26C125.713 1346.19 125.226 1345.2 124.524 1344.36C123.821 1343.52 122.925 1342.87 121.913 1342.46L107.027 1336.45C99.6829 1333.48 99.2922 1324.23 107.155 1320.31L120.55 1312.19C121.63 1311.57 122.545 1310.7 123.217 1309.65C123.89 1308.6 124.301 1307.41 124.416 1306.17L126.172 1290.33C126.879 1281.64 135.23 1278.6 141.228 1283.92L152.429 1293.89C154.138 1295.41 156.933 1296.44 159.266 1295.84L174.842 1291.94C182.705 1290 188.302 1296.67 185.016 1304.06L185.014 1304.06Z" fill="url(#paint0_radial_0_262)"/>
</g>
</g>
<g clip-path="url(#clip1_0_262)">
<rect x="1402" y="244" width="100" height="100" transform="rotate(-30 1402 244)" fill="white"/>
<g filter="url(#filter1_d_0_262)">
<g filter="url(#filter2_d_0_262)">
<path d="M1457.92 264.534C1459.16 262.579 1459.71 260.263 1459.49 257.956C1459.26 255.65 1458.26 253.486 1456.66 251.812C1455.06 250.138 1452.94 249.051 1450.65 248.725C1448.35 248.398 1446.01 248.851 1444.01 250.011C1441.99 251.175 1440.43 252.983 1439.56 255.145C1438.7 257.307 1438.59 259.696 1439.26 261.927C1439.43 262.529 1439.44 263.167 1439.28 263.773C1439.12 264.379 1438.8 264.931 1438.35 265.369C1437.24 266.435 1436.39 267.734 1435.85 269.172C1435.32 270.61 1435.11 272.151 1435.24 273.68C1435.38 275.209 1435.86 276.688 1436.64 278.009C1437.42 279.329 1438.49 280.457 1439.77 281.31C1440.24 281.634 1440.59 282.099 1440.78 282.637C1440.97 283.175 1440.98 283.759 1440.82 284.305C1440.22 286.212 1440.21 288.256 1440.79 290.169C1441.37 292.083 1442.51 293.777 1444.07 295.029C1445.63 296.281 1447.53 297.033 1449.52 297.187C1451.52 297.341 1453.51 296.889 1455.24 295.89L1470.82 286.895L1457.91 264.532L1457.92 264.534Z" fill="url(#paint1_linear_0_262)"/>
<path d="M1457.92 264.534C1459.16 262.579 1459.71 260.263 1459.49 257.956C1459.26 255.65 1458.26 253.486 1456.66 251.812C1455.06 250.138 1452.94 249.051 1450.65 248.725C1448.35 248.398 1446.01 248.851 1444.01 250.011C1441.99 251.175 1440.43 252.983 1439.56 255.145C1438.7 257.307 1438.59 259.696 1439.26 261.927C1439.43 262.529 1439.44 263.167 1439.28 263.773C1439.12 264.379 1438.8 264.931 1438.35 265.369C1437.24 266.435 1436.39 267.734 1435.85 269.172C1435.32 270.61 1435.11 272.151 1435.24 273.68C1435.38 275.209 1435.86 276.688 1436.64 278.009C1437.42 279.329 1438.49 280.457 1439.77 281.31C1440.24 281.634 1440.59 282.099 1440.78 282.637C1440.97 283.175 1440.98 283.759 1440.82 284.305C1440.22 286.212 1440.21 288.256 1440.79 290.169C1441.37 292.083 1442.51 293.777 1444.07 295.029C1445.63 296.281 1447.53 297.033 1449.52 297.187C1451.52 297.341 1453.51 296.889 1455.24 295.89L1470.82 286.895L1457.91 264.532L1457.92 264.534Z" fill="url(#paint2_linear_0_262)"/>
<path d="M1457.92 264.534C1459.16 262.579 1459.71 260.263 1459.49 257.956C1459.26 255.65 1458.26 253.486 1456.66 251.812C1455.06 250.138 1452.94 249.051 1450.65 248.725C1448.35 248.398 1446.01 248.851 1444.01 250.011C1441.99 251.175 1440.43 252.983 1439.56 255.145C1438.7 257.307 1438.59 259.696 1439.26 261.927C1439.43 262.529 1439.44 263.167 1439.28 263.773C1439.12 264.379 1438.8 264.931 1438.35 265.369C1437.24 266.435 1436.39 267.734 1435.85 269.172C1435.32 270.61 1435.11 272.151 1435.24 273.68C1435.38 275.209 1435.86 276.688 1436.64 278.009C1437.42 279.329 1438.49 280.457 1439.77 281.31C1440.24 281.634 1440.59 282.099 1440.78 282.637C1440.97 283.175 1440.98 283.759 1440.82 284.305C1440.22 286.212 1440.21 288.256 1440.79 290.169C1441.37 292.083 1442.51 293.777 1444.07 295.029C1445.63 296.281 1447.53 297.033 1449.52 297.187C1451.52 297.341 1453.51 296.889 1455.24 295.89L1470.82 286.895L1457.91 264.532L1457.92 264.534Z" fill="url(#paint3_radial_0_262)"/>
</g>
<g filter="url(#filter3_f_0_262)">
<path d="M1456.51 292.881C1458.5 289.797 1457.04 285.319 1453.26 282.879C1449.47 280.44 1444.79 280.962 1442.81 284.046C1440.82 287.13 1442.27 291.608 1446.06 294.048C1449.84 296.487 1454.52 295.965 1456.51 292.881Z" fill="url(#paint4_radial_0_262)"/>
</g>
<g filter="url(#filter4_f_0_262)">
<path d="M1440.73 279.737C1444.15 281.015 1448.2 278.625 1449.78 274.4C1451.36 270.175 1449.87 265.714 1446.46 264.436C1443.04 263.159 1439 265.548 1437.41 269.774C1435.83 273.999 1437.32 278.46 1440.73 279.737Z" fill="url(#paint5_radial_0_262)"/>
</g>
<path d="M1438.64 243.452C1438.5 243.201 1438.46 242.902 1438.53 242.622C1438.61 242.342 1438.79 242.103 1439.04 241.958L1445.22 238.389C1445.48 238.244 1445.77 238.205 1446.05 238.28C1446.33 238.355 1446.57 238.538 1446.72 238.789L1459.66 261.203L1451.58 265.867L1438.64 243.453L1438.64 243.452Z" fill="url(#paint6_radial_0_262)"/>
<path d="M1438.64 243.452C1438.5 243.201 1438.46 242.902 1438.53 242.622C1438.61 242.342 1438.79 242.103 1439.04 241.958L1445.22 238.389C1445.48 238.244 1445.77 238.205 1446.05 238.28C1446.33 238.355 1446.57 238.538 1446.72 238.789L1459.66 261.203L1451.58 265.867L1438.64 243.453L1438.64 243.452Z" fill="url(#paint7_linear_0_262)"/>
<path d="M1438.64 243.452C1438.5 243.201 1438.46 242.902 1438.53 242.622C1438.61 242.342 1438.79 242.103 1439.04 241.958L1445.22 238.389C1445.48 238.244 1445.77 238.205 1446.05 238.28C1446.33 238.355 1446.57 238.538 1446.72 238.789L1459.66 261.203L1451.58 265.867L1438.64 243.453L1438.64 243.452Z" fill="url(#paint8_linear_0_262)"/>
<path d="M1438.64 243.452C1438.5 243.201 1438.46 242.902 1438.53 242.622C1438.61 242.342 1438.79 242.103 1439.04 241.958L1445.22 238.389C1445.48 238.244 1445.77 238.205 1446.05 238.28C1446.33 238.355 1446.57 238.538 1446.72 238.789L1459.66 261.203L1451.58 265.867L1438.64 243.453L1438.64 243.452Z" fill="url(#paint9_linear_0_262)"/>
<path d="M1438.64 243.452C1438.5 243.201 1438.46 242.902 1438.53 242.622C1438.61 242.342 1438.79 242.103 1439.04 241.958L1445.22 238.389C1445.48 238.244 1445.77 238.205 1446.05 238.28C1446.33 238.355 1446.57 238.538 1446.72 238.789L1459.66 261.203L1451.58 265.867L1438.64 243.453L1438.64 243.452Z" fill="url(#paint10_radial_0_262)"/>
<path d="M1516.23 272.273L1467.25 300.55L1449.61 269.995L1459.99 231.42L1498.58 241.722L1516.22 272.276L1516.23 272.273Z" fill="url(#paint11_linear_0_262)"/>
<path d="M1516.23 272.273L1467.25 300.55L1449.61 269.995L1459.99 231.42L1498.58 241.722L1516.22 272.276L1516.23 272.273Z" fill="url(#paint12_linear_0_262)"/>
<path d="M1516.23 272.273L1467.25 300.55L1449.61 269.995L1459.99 231.42L1498.58 241.722L1516.22 272.276L1516.23 272.273Z" fill="url(#paint13_radial_0_262)"/>
<path d="M1516.23 272.273L1467.25 300.55L1449.61 269.995L1459.99 231.42L1498.58 241.722L1516.22 272.276L1516.23 272.273Z" fill="url(#paint14_linear_0_262)"/>
<path d="M1516.23 272.273L1467.25 300.55L1449.61 269.995L1459.99 231.42L1498.58 241.722L1516.22 272.276L1516.23 272.273Z" fill="url(#paint15_radial_0_262)"/>
<path d="M1516.23 272.273L1467.25 300.55L1449.61 269.995L1459.99 231.42L1498.58 241.722L1516.22 272.276L1516.23 272.273Z" fill="url(#paint16_linear_0_262)"/>
<path d="M1516.23 272.273L1467.25 300.55L1449.61 269.995L1459.99 231.42L1498.58 241.722L1516.22 272.276L1516.23 272.273Z" fill="url(#paint17_linear_0_262)"/>
<g filter="url(#filter5_f_0_262)">
<path d="M1489.28 287.828L1473.5 296.939L1460.54 274.487C1459.55 272.777 1459.95 270.674 1461.42 269.824L1471.84 263.81C1473.31 262.96 1475.33 263.668 1476.32 265.378L1489.28 287.828Z" fill="url(#paint18_linear_0_262)"/>
</g>
<g filter="url(#filter6_f_0_262)">
<path d="M1470.26 296.652L1492.18 283.996L1493.67 286.567L1471.74 299.223L1470.26 296.652Z" fill="#68552B"/>
</g>
<g filter="url(#filter7_d_0_262)">
<path d="M1501.21 263.445L1491.69 268.941C1491.44 269.085 1491.17 269.18 1490.88 269.217C1490.59 269.255 1490.3 269.236 1490.02 269.162C1489.75 269.087 1489.48 268.958 1489.25 268.782C1489.03 268.605 1488.83 268.386 1488.69 268.135L1483.19 258.614C1482.58 257.545 1482.96 256.21 1484 255.612L1493.52 250.117C1494.59 249.499 1495.92 249.883 1496.52 250.919L1502.02 260.44C1502.17 260.689 1502.26 260.966 1502.3 261.253C1502.34 261.54 1502.32 261.832 1502.25 262.112C1502.17 262.392 1502.04 262.654 1501.86 262.883C1501.69 263.112 1501.47 263.303 1501.21 263.445Z" fill="url(#paint19_linear_0_262)"/>
<path d="M1501.21 263.445L1491.69 268.941C1491.44 269.085 1491.17 269.18 1490.88 269.217C1490.59 269.255 1490.3 269.236 1490.02 269.162C1489.75 269.087 1489.48 268.958 1489.25 268.782C1489.03 268.605 1488.83 268.386 1488.69 268.135L1483.19 258.614C1482.58 257.545 1482.96 256.21 1484 255.612L1493.52 250.117C1494.59 249.499 1495.92 249.883 1496.52 250.919L1502.02 260.44C1502.17 260.689 1502.26 260.966 1502.3 261.253C1502.34 261.54 1502.32 261.832 1502.25 262.112C1502.17 262.392 1502.04 262.654 1501.86 262.883C1501.69 263.112 1501.47 263.303 1501.21 263.445Z" fill="url(#paint20_linear_0_262)"/>
</g>
<path d="M1501.21 263.445L1491.69 268.941C1491.44 269.085 1491.17 269.18 1490.88 269.217C1490.59 269.255 1490.3 269.236 1490.02 269.162C1489.75 269.087 1489.48 268.958 1489.25 268.782C1489.03 268.605 1488.83 268.386 1488.69 268.135L1483.19 258.614C1482.58 257.545 1482.96 256.21 1484 255.612L1493.52 250.117C1494.59 249.499 1495.92 249.883 1496.52 250.919L1502.02 260.44C1502.17 260.689 1502.26 260.966 1502.3 261.253C1502.34 261.54 1502.32 261.832 1502.25 262.112C1502.17 262.392 1502.04 262.654 1501.86 262.883C1501.69 263.112 1501.47 263.303 1501.21 263.445Z" fill="url(#paint21_linear_0_262)"/>
<path d="M1501.21 263.445L1491.69 268.941C1491.44 269.085 1491.17 269.18 1490.88 269.217C1490.59 269.255 1490.3 269.236 1490.02 269.162C1489.75 269.087 1489.48 268.958 1489.25 268.782C1489.03 268.605 1488.83 268.386 1488.69 268.135L1483.19 258.614C1482.58 257.545 1482.96 256.21 1484 255.612L1493.52 250.117C1494.59 249.499 1495.92 249.883 1496.52 250.919L1502.02 260.44C1502.17 260.689 1502.26 260.966 1502.3 261.253C1502.34 261.54 1502.32 261.832 1502.25 262.112C1502.17 262.392 1502.04 262.654 1501.86 262.883C1501.69 263.112 1501.47 263.303 1501.21 263.445Z" fill="url(#paint22_linear_0_262)"/>
<g filter="url(#filter8_dd_0_262)">
<path d="M1490.5 283.695L1472.9 293.856L1460.61 272.57C1459.68 270.946 1460.26 268.84 1461.9 267.891L1473.52 261.185C1475.16 260.236 1477.28 260.788 1478.21 262.407L1490.5 283.695Z" fill="url(#paint23_linear_0_262)"/>
</g>
<g filter="url(#filter9_f_0_262)">
<path d="M1480.07 275.813C1480.41 275.618 1480.65 275.299 1480.76 274.924C1480.86 274.549 1480.8 274.149 1480.61 273.813C1480.42 273.476 1480.1 273.231 1479.72 273.13C1479.35 273.03 1478.95 273.083 1478.61 273.277C1478.27 273.471 1478.03 273.791 1477.93 274.166C1477.83 274.541 1477.88 274.94 1478.07 275.277C1478.27 275.613 1478.59 275.858 1478.96 275.959C1479.34 276.059 1479.74 276.007 1480.07 275.813Z" fill="#62393D"/>
</g>
<g filter="url(#filter10_dd_0_262)">
<path d="M1480.29 275.43C1480.63 275.234 1480.88 274.911 1480.98 274.532C1481.08 274.154 1481.03 273.75 1480.83 273.411C1480.64 273.071 1480.31 272.823 1479.94 272.722C1479.56 272.62 1479.15 272.674 1478.81 272.87C1478.47 273.066 1478.23 273.388 1478.13 273.767C1478.02 274.146 1478.08 274.549 1478.27 274.889C1478.47 275.228 1478.79 275.476 1479.17 275.577C1479.55 275.679 1479.95 275.626 1480.29 275.43Z" fill="#895D56"/>
</g>
<path d="M1505.16 238.318L1459.73 226.507C1458.91 226.29 1458.05 226.405 1457.32 226.827C1456.59 227.248 1456.05 227.942 1455.83 228.757C1455.83 228.757 1455.81 228.772 1455.82 228.802L1443.29 274.12C1443.18 274.517 1443.14 274.932 1443.2 275.342C1443.25 275.751 1443.38 276.145 1443.59 276.502C1443.79 276.86 1444.07 277.172 1444.4 277.421C1444.73 277.671 1445.1 277.852 1445.5 277.955C1446.31 278.163 1447.18 278.044 1447.91 277.624C1448.64 277.203 1449.17 276.515 1449.4 275.705L1460.87 234.122C1460.93 233.924 1461.06 233.755 1461.23 233.653C1461.41 233.55 1461.62 233.522 1461.82 233.573L1503.43 244.388C1504.24 244.605 1505.11 244.49 1505.84 244.068C1506.57 243.646 1507.1 242.952 1507.32 242.138C1507.78 240.445 1506.83 238.74 1505.16 238.318Z" fill="url(#paint24_linear_0_262)"/>
<path d="M1471.81 297.193C1471.5 296.655 1471.41 296.015 1471.58 295.415C1471.74 294.814 1472.13 294.302 1472.67 293.991L1490.53 283.679C1491.07 283.368 1491.71 283.284 1492.31 283.445C1492.91 283.606 1493.42 283.999 1493.73 284.537L1494.04 285.078L1472.12 297.734L1471.81 297.193Z" fill="url(#paint25_linear_0_262)"/>
<path d="M1471.81 297.193C1471.5 296.655 1471.41 296.015 1471.58 295.415C1471.74 294.814 1472.13 294.302 1472.67 293.991L1490.53 283.679C1491.07 283.368 1491.71 283.284 1492.31 283.445C1492.91 283.606 1493.42 283.999 1493.73 284.537L1494.04 285.078L1472.12 297.734L1471.81 297.193Z" fill="url(#paint26_linear_0_262)"/>
<path d="M1471.81 297.193C1471.5 296.655 1471.41 296.015 1471.58 295.415C1471.74 294.814 1472.13 294.302 1472.67 293.991L1490.53 283.679C1491.07 283.368 1491.71 283.284 1492.31 283.445C1492.91 283.606 1493.42 283.999 1493.73 284.537L1494.04 285.078L1472.12 297.734L1471.81 297.193Z" fill="url(#paint27_linear_0_262)"/>
<g filter="url(#filter11_d_0_262)">
<path d="M1452.11 316.561C1450.38 313.549 1451.41 309.698 1454.42 307.959L1518.88 270.745C1521.89 269.004 1525.74 270.036 1527.48 273.048L1452.11 316.561Z" fill="#3FD47B"/>
</g>
<path d="M1452.11 316.561C1450.38 313.549 1451.41 309.698 1454.42 307.959L1518.88 270.745C1521.89 269.004 1525.74 270.036 1527.48 273.048L1452.11 316.561Z" fill="url(#paint28_linear_0_262)"/>
<path d="M1452.11 316.561C1450.38 313.549 1451.41 309.698 1454.42 307.959L1518.88 270.745C1521.89 269.004 1525.74 270.036 1527.48 273.048L1452.11 316.561Z" fill="url(#paint29_radial_0_262)"/>
<path d="M1452.11 316.561C1450.38 313.549 1451.41 309.698 1454.42 307.959L1518.88 270.745C1521.89 269.004 1525.74 270.036 1527.48 273.048L1452.11 316.561Z" fill="url(#paint30_radial_0_262)"/>
<g filter="url(#filter12_d_0_262)">
<path d="M1516.58 279.34C1517.86 277.836 1518.64 275.975 1518.82 274.012C1519 272.048 1518.57 270.077 1517.59 268.365C1514.94 263.772 1509.01 262.234 1504.35 264.924C1503 265.699 1501.85 266.786 1501.01 268.094C1500.16 269.402 1499.64 270.893 1499.48 272.444C1499.3 274.29 1498.57 276.133 1497.72 277.783C1497.22 278.751 1496.97 279.829 1497 280.918C1497.02 282.008 1497.32 283.074 1497.86 284.019C1498.95 285.913 1500.86 287.047 1502.91 287.24L1516.58 279.34Z" fill="#2EAD69"/>
<path d="M1516.58 279.34C1517.86 277.836 1518.64 275.975 1518.82 274.012C1519 272.048 1518.57 270.077 1517.59 268.365C1514.94 263.772 1509.01 262.234 1504.35 264.924C1503 265.699 1501.85 266.786 1501.01 268.094C1500.16 269.402 1499.64 270.893 1499.48 272.444C1499.3 274.29 1498.57 276.133 1497.72 277.783C1497.22 278.751 1496.97 279.829 1497 280.918C1497.02 282.008 1497.32 283.074 1497.86 284.019C1498.95 285.913 1500.86 287.047 1502.91 287.24L1516.58 279.34Z" fill="url(#paint31_linear_0_262)"/>
<path d="M1516.58 279.34C1517.86 277.836 1518.64 275.975 1518.82 274.012C1519 272.048 1518.57 270.077 1517.59 268.365C1514.94 263.772 1509.01 262.234 1504.35 264.924C1503 265.699 1501.85 266.786 1501.01 268.094C1500.16 269.402 1499.64 270.893 1499.48 272.444C1499.3 274.29 1498.57 276.133 1497.72 277.783C1497.22 278.751 1496.97 279.829 1497 280.918C1497.02 282.008 1497.32 283.074 1497.86 284.019C1498.95 285.913 1500.86 287.047 1502.91 287.24L1516.58 279.34Z" fill="url(#paint32_radial_0_262)"/>
<path d="M1516.58 279.34C1517.86 277.836 1518.64 275.975 1518.82 274.012C1519 272.048 1518.57 270.077 1517.59 268.365C1514.94 263.772 1509.01 262.234 1504.35 264.924C1503 265.699 1501.85 266.786 1501.01 268.094C1500.16 269.402 1499.64 270.893 1499.48 272.444C1499.3 274.29 1498.57 276.133 1497.72 277.783C1497.22 278.751 1496.97 279.829 1497 280.918C1497.02 282.008 1497.32 283.074 1497.86 284.019C1498.95 285.913 1500.86 287.047 1502.91 287.24L1516.58 279.34Z" fill="url(#paint33_radial_0_262)"/>
</g>
<path d="M1516.58 279.34C1517.86 277.836 1518.64 275.975 1518.82 274.012C1519 272.048 1518.57 270.077 1517.59 268.365C1514.94 263.772 1509.01 262.234 1504.35 264.924C1503 265.699 1501.85 266.786 1501.01 268.094C1500.16 269.402 1499.64 270.893 1499.48 272.444C1499.3 274.29 1498.57 276.133 1497.72 277.783C1497.22 278.751 1496.97 279.829 1497 280.918C1497.02 282.008 1497.32 283.074 1497.86 284.019C1498.95 285.913 1500.86 287.047 1502.91 287.24L1516.58 279.34Z" fill="url(#paint34_radial_0_262)"/>
<g filter="url(#filter13_f_0_262)">
<path d="M1459.02 228.739L1504.57 240.569" stroke="url(#paint35_linear_0_262)" stroke-width="0.28125" stroke-linecap="round"/>
</g>
<g filter="url(#filter14_f_0_262)">
<path d="M1459.02 228.739L1446.49 274.1" stroke="url(#paint36_linear_0_262)" stroke-opacity="0.5" stroke-width="0.28125" stroke-linecap="round"/>
</g>
<g filter="url(#filter15_f_0_262)">
<path d="M1508.12 281.397C1505.83 280.46 1503.77 279.023 1502.1 277.191C1502.04 277.115 1501.96 277.055 1501.87 277.013C1501.77 276.972 1501.67 276.951 1501.57 276.951C1501.47 276.952 1501.38 276.974 1501.28 277.016C1501.19 277.058 1501.11 277.119 1501.05 277.195L1500.67 277.655C1500.07 278.381 1499.75 279.292 1499.76 280.231C1499.77 281.17 1500.1 282.077 1500.71 282.792C1501.32 283.508 1502.16 283.987 1503.09 284.146C1504.01 284.305 1504.96 284.134 1505.78 283.663L1508.2 282.263C1508.54 282.064 1508.49 281.541 1508.12 281.397Z" fill="#31B570"/>
</g>
</g>
</g>
<defs>
<filter id="filter0_d_0_262" x="95.388" y="1279.29" width="95.1272" height="96.5947" filterUnits="userSpaceOnUse" color-interpolation-filters="sRGB">
<feFlood flood-opacity="0" result="BackgroundImageFix"/>
<feColorMatrix in="SourceAlpha" type="matrix" values="0 0 0 0 0 0 0 0 0 0 0 0 0 0 0 0 0 0 127 0" result="hardAlpha"/>
<feOffset dx="-2" dy="2"/>
<feGaussianBlur stdDeviation="2"/>
<feComposite in2="hardAlpha" operator="out"/>
<feColorMatrix type="matrix" values="0 0 0 0 1 0 0 0 0 0.67451 0 0 0 0 0.152941 0 0 0 0.3 0"/>
<feBlend mode="normal" in2="BackgroundImageFix" result="effect1_dropShadow_0_262"/>
<feBlend mode="normal" in="SourceGraphic" in2="effect1_dropShadow_0_262" result="shape"/>
</filter>
<filter id="filter1_d_0_262" x="1429.2" y="224.4" width="100.276" height="98.1611" filterUnits="userSpaceOnUse" color-interpolation-filters="sRGB">
<feFlood flood-opacity="0" result="BackgroundImageFix"/>
<feColorMatrix in="SourceAlpha" type="matrix" values="0 0 0 0 0 0 0 0 0 0 0 0 0 0 0 0 0 0 127 0" result="hardAlpha"/>
<feOffset dx="-2" dy="2"/>
<feGaussianBlur stdDeviation="2"/>
<feComposite in2="hardAlpha" operator="out"/>
<feColorMatrix type="matrix" values="0 0 0 0 0.152941 0 0 0 0 0.588235 0 0 0 0 0.337255 0 0 0 0.3 0"/>
<feBlend mode="normal" in2="BackgroundImageFix" result="effect1_dropShadow_0_262"/>
<feBlend mode="normal" in="SourceGraphic" in2="effect1_dropShadow_0_262" result="shape"/>
</filter>
<filter id="filter2_d_0_262" x="1434.45" y="247.871" width="37.4928" height="50.47" filterUnits="userSpaceOnUse" color-interpolation-filters="sRGB">
<feFlood flood-opacity="0" result="BackgroundImageFix"/>
<feColorMatrix in="SourceAlpha" type="matrix" values="0 0 0 0 0 0 0 0 0 0 0 0 0 0 0 0 0 0 127 0" result="hardAlpha"/>
<feOffset dx="0.1875" dy="0.1875"/>
<feGaussianBlur stdDeviation="0.46875"/>
<feComposite in2="hardAlpha" operator="out"/>
<feColorMatrix type="matrix" values="0 0 0 0 0.301961 0 0 0 0 0.592157 0 0 0 0 0.392157 0 0 0 1 0"/>
<feBlend mode="normal" in2="BackgroundImageFix" result="effect1_dropShadow_0_262"/>
<feBlend mode="normal" in="SourceGraphic" in2="effect1_dropShadow_0_262" result="shape"/>
</filter>
<filter id="filter3_f_0_262" x="1440.98" y="280.406" width="17.3594" height="16.1157" filterUnits="userSpaceOnUse" color-interpolation-filters="sRGB">
<feFlood flood-opacity="0" result="BackgroundImageFix"/>
<feBlend mode="normal" in="SourceGraphic" in2="BackgroundImageFix" result="shape"/>
<feGaussianBlur stdDeviation="0.46875" result="effect1_foregroundBlur_0_262"/>
</filter>
<filter id="filter4_f_0_262" x="1435.84" y="263.155" width="15.5026" height="17.8645" filterUnits="userSpaceOnUse" color-interpolation-filters="sRGB">
<feFlood flood-opacity="0" result="BackgroundImageFix"/>
<feBlend mode="normal" in="SourceGraphic" in2="BackgroundImageFix" result="shape"/>
<feGaussianBlur stdDeviation="0.46875" result="effect1_foregroundBlur_0_262"/>
</filter>
<filter id="filter5_f_0_262" x="1459.53" y="262.981" width="30.2233" height="34.4268" filterUnits="userSpaceOnUse" color-interpolation-filters="sRGB">
<feFlood flood-opacity="0" result="BackgroundImageFix"/>
<feBlend mode="normal" in="SourceGraphic" in2="BackgroundImageFix" result="shape"/>
<feGaussianBlur stdDeviation="0.234375" result="effect1_foregroundBlur_0_262"/>
</filter>
<filter id="filter6_f_0_262" x="1469.79" y="283.527" width="24.3431" height="16.1648" filterUnits="userSpaceOnUse" color-interpolation-filters="sRGB">
<feFlood flood-opacity="0" result="BackgroundImageFix"/>
<feBlend mode="normal" in="SourceGraphic" in2="BackgroundImageFix" result="shape"/>
<feGaussianBlur stdDeviation="0.234375" result="effect1_foregroundBlur_0_262"/>
</filter>
<filter id="filter7_d_0_262" x="1481.96" y="249.82" width="20.3628" height="20.3542" filterUnits="userSpaceOnUse" color-interpolation-filters="sRGB">
<feFlood flood-opacity="0" result="BackgroundImageFix"/>
<feColorMatrix in="SourceAlpha" type="matrix" values="0 0 0 0 0 0 0 0 0 0 0 0 0 0 0 0 0 0 127 0" result="hardAlpha"/>
<feOffset dx="-0.46875" dy="0.46875"/>
<feGaussianBlur stdDeviation="0.234375"/>
<feComposite in2="hardAlpha" operator="out"/>
<feColorMatrix type="matrix" values="0 0 0 0 0.0470588 0 0 0 0 0.47451 0 0 0 0 0.792157 0 0 0 1 0"/>
<feBlend mode="normal" in2="BackgroundImageFix" result="effect1_dropShadow_0_262"/>
<feBlend mode="normal" in="SourceGraphic" in2="effect1_dropShadow_0_262" result="shape"/>
</filter>
<filter id="filter8_dd_0_262" x="1459.7" y="260.252" width="31.5089" height="34.0725" filterUnits="userSpaceOnUse" color-interpolation-filters="sRGB">
<feFlood flood-opacity="0" result="BackgroundImageFix"/>
<feColorMatrix in="SourceAlpha" type="matrix" values="0 0 0 0 0 0 0 0 0 0 0 0 0 0 0 0 0 0 127 0" result="hardAlpha"/>
<feOffset dx="0.234375"/>
<feGaussianBlur stdDeviation="0.234375"/>
<feComposite in2="hardAlpha" operator="out"/>
<feColorMatrix type="matrix" values="0 0 0 0 0.254902 0 0 0 0 0.188235 0 0 0 0 0.141176 0 0 0 1 0"/>
<feBlend mode="normal" in2="BackgroundImageFix" result="effect1_dropShadow_0_262"/>
<feColorMatrix in="SourceAlpha" type="matrix" values="0 0 0 0 0 0 0 0 0 0 0 0 0 0 0 0 0 0 127 0" result="hardAlpha"/>
<feOffset dx="-0.1875"/>
<feGaussianBlur stdDeviation="0.140625"/>
<feComposite in2="hardAlpha" operator="out"/>
<feColorMatrix type="matrix" values="0 0 0 0 0.694118 0 0 0 0 0.470588 0 0 0 0 0.407843 0 0 0 1 0"/>
<feBlend mode="normal" in2="effect1_dropShadow_0_262" result="effect2_dropShadow_0_262"/>
<feBlend mode="normal" in="SourceGraphic" in2="effect2_dropShadow_0_262" result="shape"/>
</filter>
<filter id="filter9_f_0_262" x="1477.74" y="272.94" width="3.20935" height="3.20947" filterUnits="userSpaceOnUse" color-interpolation-filters="sRGB">
<feFlood flood-opacity="0" result="BackgroundImageFix"/>
<feBlend mode="normal" in="SourceGraphic" in2="BackgroundImageFix" result="shape"/>
<feGaussianBlur stdDeviation="0.0703125" result="effect1_foregroundBlur_0_262"/>
</filter>
<filter id="filter10_dd_0_262" x="1477.79" y="272.484" width="3.51874" height="3.33105" filterUnits="userSpaceOnUse" color-interpolation-filters="sRGB">
<feFlood flood-opacity="0" result="BackgroundImageFix"/>
<feColorMatrix in="SourceAlpha" type="matrix" values="0 0 0 0 0 0 0 0 0 0 0 0 0 0 0 0 0 0 127 0" result="hardAlpha"/>
<feOffset dx="-0.09375"/>
<feGaussianBlur stdDeviation="0.09375"/>
<feComposite in2="hardAlpha" operator="out"/>
<feColorMatrix type="matrix" values="0 0 0 0 0.694118 0 0 0 0 0.482353 0 0 0 0 0.419608 0 0 0 1 0"/>
<feBlend mode="normal" in2="BackgroundImageFix" result="effect1_dropShadow_0_262"/>
<feColorMatrix in="SourceAlpha" type="matrix" values="0 0 0 0 0 0 0 0 0 0 0 0 0 0 0 0 0 0 127 0" result="hardAlpha"/>
<feOffset dx="0.09375"/>
<feGaussianBlur stdDeviation="0.09375"/>
<feComposite in2="hardAlpha" operator="out"/>
<feColorMatrix type="matrix" values="0 0 0 0 0.290196 0 0 0 0 0.184314 0 0 0 0 0.164706 0 0 0 1 0"/>
<feBlend mode="normal" in2="effect1_dropShadow_0_262" result="effect2_dropShadow_0_262"/>
<feBlend mode="normal" in="SourceGraphic" in2="effect2_dropShadow_0_262" result="shape"/>
</filter>
<filter id="filter11_d_0_262" x="1450.8" y="268.961" width="78.0857" height="48.5369" filterUnits="userSpaceOnUse" color-interpolation-filters="sRGB">
<feFlood flood-opacity="0" result="BackgroundImageFix"/>
<feColorMatrix in="SourceAlpha" type="matrix" values="0 0 0 0 0 0 0 0 0 0 0 0 0 0 0 0 0 0 127 0" result="hardAlpha"/>
<feOffset dx="0.46875"/>
<feGaussianBlur stdDeviation="0.46875"/>
<feComposite in2="hardAlpha" operator="out"/>
<feColorMatrix type="matrix" values="0 0 0 0 0.25098 0 0 0 0 0.545098 0 0 0 0 0.352941 0 0 0 1 0"/>
<feBlend mode="normal" in2="BackgroundImageFix" result="effect1_dropShadow_0_262"/>
<feBlend mode="normal" in="SourceGraphic" in2="effect1_dropShadow_0_262" result="shape"/>
</filter>
<filter id="filter12_d_0_262" x="1496.62" y="263.225" width="22.9879" height="24.7649" filterUnits="userSpaceOnUse" color-interpolation-filters="sRGB">
<feFlood flood-opacity="0" result="BackgroundImageFix"/>
<feColorMatrix in="SourceAlpha" type="matrix" values="0 0 0 0 0 0 0 0 0 0 0 0 0 0 0 0 0 0 127 0" result="hardAlpha"/>
<feOffset dx="0.1875" dy="0.1875"/>
<feGaussianBlur stdDeviation="0.28125"/>
<feComposite in2="hardAlpha" operator="out"/>
<feColorMatrix type="matrix" values="0 0 0 0 0.309804 0 0 0 0 0.564706 0 0 0 0 0.329412 0 0 0 1 0"/>
<feBlend mode="normal" in2="BackgroundImageFix" result="effect1_dropShadow_0_262"/>
<feBlend mode="normal" in="SourceGraphic" in2="effect1_dropShadow_0_262" result="shape"/>
</filter>
<filter id="filter13_f_0_262" x="1458.32" y="228.036" width="46.9547" height="13.2358" filterUnits="userSpaceOnUse" color-interpolation-filters="sRGB">
<feFlood flood-opacity="0" result="BackgroundImageFix"/>
<feBlend mode="normal" in="SourceGraphic" in2="BackgroundImageFix" result="shape"/>
<feGaussianBlur stdDeviation="0.28125" result="effect1_foregroundBlur_0_262"/>
</filter>
<filter id="filter14_f_0_262" x="1445.79" y="228.036" width="13.9359" height="46.7671" filterUnits="userSpaceOnUse" color-interpolation-filters="sRGB">
<feFlood flood-opacity="0" result="BackgroundImageFix"/>
<feBlend mode="normal" in="SourceGraphic" in2="BackgroundImageFix" result="shape"/>
<feGaussianBlur stdDeviation="0.28125" result="effect1_foregroundBlur_0_262"/>
</filter>
<filter id="filter15_f_0_262" x="1499.06" y="276.248" width="10.0771" height="8.65869" filterUnits="userSpaceOnUse" color-interpolation-filters="sRGB">
<feFlood flood-opacity="0" result="BackgroundImageFix"/>
<feBlend mode="normal" in="SourceGraphic" in2="BackgroundImageFix" result="shape"/>
<feGaussianBlur stdDeviation="0.351562" result="effect1_foregroundBlur_0_262"/>
</filter>
<radialGradient id="paint0_radial_0_262" cx="0" cy="0" r="1" gradientUnits="userSpaceOnUse" gradientTransform="translate(184.43 1328.77) rotate(-177.061) scale(62.4384 61.7909)">
<stop stop-color="#FF7629"/>
<stop offset="1" stop-color="#FFC925"/>
</radialGradient>
<linearGradient id="paint1_linear_0_262" x1="1438.47" y1="253.204" x2="1461.15" y2="292.484" gradientUnits="userSpaceOnUse">
<stop stop-color="#29884D"/>
<stop offset="1" stop-color="#227341"/>
</linearGradient>
<linearGradient id="paint2_linear_0_262" x1="1455.47" y1="296.328" x2="1454.27" y2="294.255" gradientUnits="userSpaceOnUse">
<stop stop-color="#4E7978"/>
<stop offset="1" stop-color="#4E7978" stop-opacity="0"/>
</linearGradient>
<radialGradient id="paint3_radial_0_262" cx="0" cy="0" r="1" gradientUnits="userSpaceOnUse" gradientTransform="translate(1442.11 248.441) rotate(60) scale(8.80256 8.20434)">
<stop offset="0.097" stop-color="#4DB56F"/>
<stop offset="1" stop-color="#4DB56F" stop-opacity="0"/>
</radialGradient>
<radialGradient id="paint4_radial_0_262" cx="0" cy="0" r="1" gradientUnits="userSpaceOnUse" gradientTransform="translate(1449.24 291.445) rotate(-67.7036) scale(12.6588 21.1819)">
<stop stop-color="#279D5A"/>
<stop offset="1" stop-color="#279D5A" stop-opacity="0"/>
</radialGradient>
<radialGradient id="paint5_radial_0_262" cx="0" cy="0" r="1" gradientUnits="userSpaceOnUse" gradientTransform="translate(1439.07 270.646) rotate(10.6049) scale(9.55364 16.118)">
<stop stop-color="#2EA75B"/>
<stop offset="1" stop-color="#2EA75B" stop-opacity="0"/>
</radialGradient>
<radialGradient id="paint6_radial_0_262" cx="0" cy="0" r="1" gradientUnits="userSpaceOnUse" gradientTransform="translate(1445.83 239.78) rotate(60) scale(11.9787 5.94719)">
<stop stop-color="#FFD1A3"/>
<stop offset="1" stop-color="#DFA276"/>
</radialGradient>
<linearGradient id="paint7_linear_0_262" x1="1442.74" y1="251.851" x2="1446.12" y2="249.899" gradientUnits="userSpaceOnUse">
<stop stop-color="#8E694B"/>
<stop offset="1" stop-color="#8E694B" stop-opacity="0"/>
</linearGradient>
<linearGradient id="paint8_linear_0_262" x1="1450.9" y1="250.688" x2="1448.41" y2="249.798" gradientUnits="userSpaceOnUse">
<stop stop-color="#C77958"/>
<stop offset="1" stop-color="#C77958" stop-opacity="0"/>
</linearGradient>
<linearGradient id="paint9_linear_0_262" x1="1442.06" y1="240.048" x2="1442.28" y2="240.427" gradientUnits="userSpaceOnUse">
<stop stop-color="#D5AD80"/>
<stop offset="1" stop-color="#D5AD80" stop-opacity="0"/>
</linearGradient>
<radialGradient id="paint10_radial_0_262" cx="0" cy="0" r="1" gradientUnits="userSpaceOnUse" gradientTransform="translate(1447.36 237.712) rotate(150) scale(6.46138 1.38891)">
<stop stop-color="#FFE9B1"/>
<stop offset="1" stop-color="#FFE9B1" stop-opacity="0"/>
</radialGradient>
<linearGradient id="paint11_linear_0_262" x1="1458.04" y1="280.467" x2="1503.88" y2="254.002" gradientUnits="userSpaceOnUse">
<stop stop-color="#D7905F"/>
<stop offset="1" stop-color="#E8BC97"/>
</linearGradient>
<linearGradient id="paint12_linear_0_262" x1="1471.06" y1="300.052" x2="1474.08" y2="263.793" gradientUnits="userSpaceOnUse">
<stop stop-color="#BA8951"/>
<stop offset="1" stop-color="#BA8951" stop-opacity="0"/>
</linearGradient>
<radialGradient id="paint13_radial_0_262" cx="0" cy="0" r="1" gradientUnits="userSpaceOnUse" gradientTransform="translate(1500.11 279.212) rotate(-147.235) scale(9.92734 12.0082)">
<stop stop-color="#BEAB75"/>
<stop offset="1" stop-color="#BEAB75" stop-opacity="0"/>
</radialGradient>
<linearGradient id="paint14_linear_0_262" x1="1509.56" y1="260.721" x2="1507.98" y2="261.629" gradientUnits="userSpaceOnUse">
<stop stop-color="#FFE6B1"/>
<stop offset="1" stop-color="#FFE6B1" stop-opacity="0"/>
</linearGradient>
<radialGradient id="paint15_radial_0_262" cx="0" cy="0" r="1" gradientUnits="userSpaceOnUse" gradientTransform="translate(1498.11 239.565) rotate(60) scale(12.3804 2.61894)">
<stop offset="0.35" stop-color="#9E413E"/>
<stop offset="1" stop-color="#9E413E" stop-opacity="0"/>
</radialGradient>
<linearGradient id="paint16_linear_0_262" x1="1473.7" y1="236.122" x2="1473.25" y2="237.786" gradientUnits="userSpaceOnUse">
<stop stop-color="#B55852"/>
<stop offset="1" stop-color="#B55852" stop-opacity="0"/>
</linearGradient>
<linearGradient id="paint17_linear_0_262" x1="1463.31" y1="294.413" x2="1464.98" y2="293.448" gradientUnits="userSpaceOnUse">
<stop stop-color="#845F3D"/>
<stop offset="1" stop-color="#845F3D" stop-opacity="0"/>
</linearGradient>
<linearGradient id="paint18_linear_0_262" x1="1466.63" y1="266.818" x2="1481.39" y2="292.384" gradientUnits="userSpaceOnUse">
<stop stop-color="#805139"/>
<stop offset="1" stop-color="#6D4D2F"/>
</linearGradient>
<linearGradient id="paint19_linear_0_262" x1="1490.37" y1="271.047" x2="1496.48" y2="248.407" gradientUnits="userSpaceOnUse">
<stop stop-color="#4CCCFF"/>
<stop offset="1" stop-color="#3A9EE6"/>
</linearGradient>
<linearGradient id="paint20_linear_0_262" x1="1496.94" y1="267.028" x2="1495.42" y2="264.406" gradientUnits="userSpaceOnUse">
<stop stop-color="#1E9FE4"/>
<stop offset="1" stop-color="#1E9FE4" stop-opacity="0"/>
</linearGradient>
<linearGradient id="paint21_linear_0_262" x1="1487.83" y1="266.652" x2="1490.51" y2="265.107" gradientUnits="userSpaceOnUse">
<stop stop-color="#48E0FF"/>
<stop offset="1" stop-color="#48E0FF" stop-opacity="0"/>
</linearGradient>
<linearGradient id="paint22_linear_0_262" x1="1482.76" y1="253.215" x2="1487.66" y2="257.559" gradientUnits="userSpaceOnUse">
<stop stop-color="#43B3F2"/>
<stop offset="1" stop-color="#43B3F2" stop-opacity="0"/>
</linearGradient>
<linearGradient id="paint23_linear_0_262" x1="1467.69" y1="284.819" x2="1485.22" y2="274.545" gradientUnits="userSpaceOnUse">
<stop stop-color="#70504D"/>
<stop offset="1" stop-color="#9B665E"/>
</linearGradient>
<linearGradient id="paint24_linear_0_262" x1="1457.26" y1="226.857" x2="1476.91" y2="260.883" gradientUnits="userSpaceOnUse">
<stop stop-color="#EA6D2E"/>
<stop offset="1" stop-color="#CA222B"/>
</linearGradient>
<linearGradient id="paint25_linear_0_262" x1="1472.71" y1="297.396" x2="1493.25" y2="285.542" gradientUnits="userSpaceOnUse">
<stop stop-color="#9FA1A3"/>
<stop offset="1" stop-color="#C4C1C7"/>
</linearGradient>
<linearGradient id="paint26_linear_0_262" x1="1471.76" y1="297.95" x2="1474.37" y2="296.44" gradientUnits="userSpaceOnUse">
<stop stop-color="#59675C"/>
<stop offset="1" stop-color="#59675C" stop-opacity="0"/>
</linearGradient>
<linearGradient id="paint27_linear_0_262" x1="1493.3" y1="283.793" x2="1491.62" y2="286.482" gradientUnits="userSpaceOnUse">
<stop stop-color="#C8CAC6"/>
<stop offset="1" stop-color="#C8CAC6" stop-opacity="0"/>
</linearGradient>
<linearGradient id="paint28_linear_0_262" x1="1490.63" y1="296.252" x2="1488.22" y2="292.076" gradientUnits="userSpaceOnUse">
<stop offset="0.107" stop-color="#3FD17B"/>
<stop offset="1" stop-color="#3FD17B" stop-opacity="0"/>
</linearGradient>
<radialGradient id="paint29_radial_0_262" cx="0" cy="0" r="1" gradientUnits="userSpaceOnUse" gradientTransform="translate(1501.14 284.617) rotate(98.0959) scale(6.01469 7.58776)">
<stop offset="0.171" stop-color="#228051"/>
<stop offset="1" stop-color="#228051" stop-opacity="0"/>
</radialGradient>
<radialGradient id="paint30_radial_0_262" cx="0" cy="0" r="1" gradientUnits="userSpaceOnUse" gradientTransform="translate(1523.88 266.805) rotate(117.147) scale(10.4409 17.1205)">
<stop stop-color="#5CEE92"/>
<stop offset="1" stop-color="#5CEE92" stop-opacity="0"/>
</radialGradient>
<linearGradient id="paint31_linear_0_262" x1="1509.8" y1="285.444" x2="1506.57" y2="279.864" gradientUnits="userSpaceOnUse">
<stop stop-color="#3B8478"/>
<stop offset="1" stop-color="#3B8478" stop-opacity="0"/>
</linearGradient>
<radialGradient id="paint32_radial_0_262" cx="0" cy="0" r="1" gradientUnits="userSpaceOnUse" gradientTransform="translate(1518.88 288.747) rotate(-140.329) scale(21.2515 9.68037)">
<stop stop-color="#2C785B"/>
<stop offset="1" stop-color="#2C785B" stop-opacity="0"/>
</radialGradient>
<radialGradient id="paint33_radial_0_262" cx="0" cy="0" r="1" gradientUnits="userSpaceOnUse" gradientTransform="translate(1510.95 268.65) rotate(112.112) scale(23.6531 32.0153)">
<stop offset="0.641" stop-color="#2C785B" stop-opacity="0"/>
<stop offset="0.966" stop-color="#2C785B"/>
</radialGradient>
<radialGradient id="paint34_radial_0_262" cx="0" cy="0" r="1" gradientUnits="userSpaceOnUse" gradientTransform="translate(1514.3 264.497) rotate(118.884) scale(13.4822 12.8348)">
<stop stop-color="#60FB9A"/>
<stop offset="1" stop-color="#60FB9A" stop-opacity="0"/>
</radialGradient>
<linearGradient id="paint35_linear_0_262" x1="1457.87" y1="228.809" x2="1507.54" y2="242.897" gradientUnits="userSpaceOnUse">
<stop stop-color="#FF8337"/>
<stop offset="1" stop-color="#F24747"/>
</linearGradient>
<linearGradient id="paint36_linear_0_262" x1="1459.66" y1="227.78" x2="1447.02" y2="277.833" gradientUnits="userSpaceOnUse">
<stop stop-color="#FF8337"/>
<stop offset="1" stop-color="#F24747"/>
</linearGradient>
<clipPath id="clip0_0_262">
<rect width="100" height="100" fill="white" transform="translate(156.604 1252) rotate(50)"/>
</clipPath>
<clipPath id="clip1_0_262">
<rect x="1402" y="244" width="100" height="100" transform="rotate(-30 1402 244)" fill="white"/>
</clipPath>
</defs>
</svg>
