<svg width="44" height="44" viewBox="0 0 44 44" fill="none" xmlns="http://www.w3.org/2000/svg">
<path d="M22 22C23.0083 22 23.8718 21.6407 24.5905 20.922C25.308 20.2046 25.6667 19.3417 25.6667 18.3333C25.6667 17.325 25.308 16.4615 24.5905 15.7428C23.8718 15.0254 23.0083 14.6667 22 14.6667C20.9917 14.6667 20.1288 15.0254 19.4113 15.7428C18.6927 16.4615 18.3333 17.325 18.3333 18.3333C18.3333 19.3417 18.6927 20.2046 19.4113 20.922C20.1288 21.6407 20.9917 22 22 22ZM22 39.6458C21.7556 39.6458 21.5111 39.6 21.2667 39.5083C21.0222 39.4167 20.8083 39.2945 20.625 39.1417C16.1639 35.2 12.8333 31.5413 10.6333 28.1655C8.43334 24.7885 7.33334 21.6333 7.33334 18.7C7.33334 14.1167 8.80795 10.4653 11.7572 7.74584C14.7052 5.02639 18.1195 3.66667 22 3.66667C25.8806 3.66667 29.2948 5.02639 32.2428 7.74584C35.1921 10.4653 36.6667 14.1167 36.6667 18.7C36.6667 21.6333 35.5667 24.7885 33.3667 28.1655C31.1667 31.5413 27.8361 35.2 23.375 39.1417C23.1917 39.2945 22.9778 39.4167 22.7333 39.5083C22.4889 39.6 22.2445 39.6458 22 39.6458Z" fill="#13131A"/>
</svg>
